<svg xmlns="http://www.w3.org/2000/svg" width="900" height="420" style="background:#fff"><line x1="55" y1="365" x2="845" y2="365" stroke="#e0e0e0"/><text x="47" y="365" text-anchor="end" dominant-baseline="middle" font-size="11" fill="#888" font-family="sans-serif">$19,121</text><line x1="55" y1="287" x2="845" y2="287" stroke="#e0e0e0"/><text x="47" y="287" text-anchor="end" dominant-baseline="middle" font-size="11" fill="#888" font-family="sans-serif">$19,389</text><line x1="55" y1="210" x2="845" y2="210" stroke="#e0e0e0"/><text x="47" y="210" text-anchor="end" dominant-baseline="middle" font-size="11" fill="#888" font-family="sans-serif">$19,656</text><line x1="55" y1="133" x2="845" y2="133" stroke="#e0e0e0"/><text x="47" y="133" text-anchor="end" dominant-baseline="middle" font-size="11" fill="#888" font-family="sans-serif">$19,923</text><line x1="55" y1="55" x2="845" y2="55" stroke="#e0e0e0"/><text x="47" y="55" text-anchor="end" dominant-baseline="middle" font-size="11" fill="#888" font-family="sans-serif">$20,191</text><polyline points="55.0,106.3 84.3,79.3 113.5,79.1 142.8,80.8 172.0,69.1 201.3,92.7 230.6,156.9 259.8,151.8 289.1,170.7 318.3,121.6 347.6,172.5 376.9,239.1 406.1,246.1 435.4,250.3 464.6,280.7 493.9,317.1 523.1,268.4 552.4,246.1 581.7,244.2 610.9,188.4 640.2,267.5 669.4,350.9 698.7,309.5 728.0,209.8 757.2,212.2 786.5,176.7 815.7,115.4 845.0,135.4" fill="none" stroke="#999" stroke-width="1.5" stroke-dasharray="4 3"/><polyline points="55.0,106.3 84.3,79.3 113.5,79.1 142.8,80.8 172.0,69.1 201.3,92.7 230.6,156.9 259.8,151.8 289.1,170.7 318.3,121.6 347.6,172.5 376.9,239.1 406.1,246.1 435.4,250.3 464.6,280.7 493.9,317.1 523.1,268.4 552.4,246.1 581.7,244.2 610.9,188.4 640.2,267.5 669.4,350.9 698.7,309.5 728.0,209.8 757.2,212.2 786.5,176.7 815.7,115.4 845.0,135.4" fill="none" stroke="#1668c8" stroke-width="2.2"/><text x="55" y="22" font-size="13" font-family="sans-serif" fill="#1668c8">— Portfolio</text><text x="165" y="22" font-size="13" font-family="sans-serif" fill="#999">- - SPY buy &amp; hold</text><text x="55" y="402" font-size="11" font-family="sans-serif" fill="#888">2026-07-08</text><text x="845" y="402" text-anchor="end" font-size="11" font-family="sans-serif" fill="#888">2026-08-14</text></svg>