<svg xmlns="http://www.w3.org/2000/svg" width="900" height="420" style="background:#fff"><line x1="55" y1="365" x2="845" y2="365" stroke="#e0e0e0"/><text x="47" y="365" text-anchor="end" dominant-baseline="middle" font-size="11" fill="#888" font-family="sans-serif">$19,768</text><line x1="55" y1="287" x2="845" y2="287" stroke="#e0e0e0"/><text x="47" y="287" text-anchor="end" dominant-baseline="middle" font-size="11" fill="#888" font-family="sans-serif">$19,866</text><line x1="55" y1="210" x2="845" y2="210" stroke="#e0e0e0"/><text x="47" y="210" text-anchor="end" dominant-baseline="middle" font-size="11" fill="#888" font-family="sans-serif">$19,964</text><line x1="55" y1="133" x2="845" y2="133" stroke="#e0e0e0"/><text x="47" y="133" text-anchor="end" dominant-baseline="middle" font-size="11" fill="#888" font-family="sans-serif">$20,062</text><line x1="55" y1="55" x2="845" y2="55" stroke="#e0e0e0"/><text x="47" y="55" text-anchor="end" dominant-baseline="middle" font-size="11" fill="#888" font-family="sans-serif">$20,160</text><polyline points="55.0,170.6 134.0,96.8 213.0,96.5 292.0,101.1 371.0,69.1 450.0,133.3 529.0,308.4 608.0,294.5 687.0,346.0 766.0,212.1 845.0,350.9" fill="none" stroke="#999" stroke-width="1.5" stroke-dasharray="4 3"/><polyline points="55.0,170.6 134.0,96.8 213.0,96.5 292.0,101.1 371.0,69.1 450.0,133.3 529.0,308.4 608.0,294.5 687.0,346.0 766.0,212.1 845.0,350.9" fill="none" stroke="#1668c8" stroke-width="2.2"/><text x="55" y="22" font-size="13" font-family="sans-serif" fill="#1668c8">— Portfolio</text><text x="165" y="22" font-size="13" font-family="sans-serif" fill="#999">- - SPY buy &amp; hold</text><text x="55" y="402" font-size="11" font-family="sans-serif" fill="#888">2026-07-08</text><text x="845" y="402" text-anchor="end" font-size="11" font-family="sans-serif" fill="#888">2026-07-22</text></svg>