<svg xmlns="http://www.w3.org/2000/svg" width="900" height="420" style="background:#fff"><line x1="55" y1="365" x2="845" y2="365" stroke="#e0e0e0"/><text x="47" y="365" text-anchor="end" dominant-baseline="middle" font-size="11" fill="#888" font-family="sans-serif">$19,121</text><line x1="55" y1="287" x2="845" y2="287" stroke="#e0e0e0"/><text x="47" y="287" text-anchor="end" dominant-baseline="middle" font-size="11" fill="#888" font-family="sans-serif">$19,389</text><line x1="55" y1="210" x2="845" y2="210" stroke="#e0e0e0"/><text x="47" y="210" text-anchor="end" dominant-baseline="middle" font-size="11" fill="#888" font-family="sans-serif">$19,656</text><line x1="55" y1="133" x2="845" y2="133" stroke="#e0e0e0"/><text x="47" y="133" text-anchor="end" dominant-baseline="middle" font-size="11" fill="#888" font-family="sans-serif">$19,923</text><line x1="55" y1="55" x2="845" y2="55" stroke="#e0e0e0"/><text x="47" y="55" text-anchor="end" dominant-baseline="middle" font-size="11" fill="#888" font-family="sans-serif">$20,191</text><polyline points="55.0,106.3 80.5,79.3 106.0,79.1 131.5,80.8 156.9,69.1 182.4,92.7 207.9,156.9 233.4,151.8 258.9,170.7 284.4,121.6 309.8,172.5 335.3,239.1 360.8,246.1 386.3,250.3 411.8,280.7 437.3,317.1 462.7,268.4 488.2,246.1 513.7,244.2 539.2,188.4 564.7,267.5 590.2,350.9 615.6,309.5 641.1,209.8 666.6,212.2 692.1,176.7 717.6,115.4 743.1,135.4 768.5,156.9 794.0,149.9 819.5,193.2 845.0,244.4" fill="none" stroke="#999" stroke-width="1.5" stroke-dasharray="4 3"/><polyline points="55.0,106.3 80.5,79.3 106.0,79.1 131.5,80.8 156.9,69.1 182.4,92.7 207.9,156.9 233.4,151.8 258.9,170.7 284.4,121.6 309.8,172.5 335.3,239.1 360.8,246.1 386.3,250.3 411.8,280.7 437.3,317.1 462.7,268.4 488.2,246.1 513.7,244.2 539.2,188.4 564.7,267.5 590.2,350.9 615.6,309.5 641.1,209.8 666.6,212.2 692.1,176.7 717.6,115.4 743.1,135.4 768.5,156.9 794.0,149.9 819.5,193.2 845.0,244.4" fill="none" stroke="#1668c8" stroke-width="2.2"/><text x="55" y="22" font-size="13" font-family="sans-serif" fill="#1668c8">— Portfolio</text><text x="165" y="22" font-size="13" font-family="sans-serif" fill="#999">- - SPY buy &amp; hold</text><text x="55" y="402" font-size="11" font-family="sans-serif" fill="#888">2026-07-08</text><text x="845" y="402" text-anchor="end" font-size="11" font-family="sans-serif" fill="#888">2026-08-20</text></svg>