<svg xmlns="http://www.w3.org/2000/svg" width="900" height="420" style="background:#fff"><line x1="55" y1="365" x2="845" y2="365" stroke="#e0e0e0"/><text x="47" y="365" text-anchor="end" dominant-baseline="middle" font-size="11" fill="#888" font-family="sans-serif">$19,121</text><line x1="55" y1="287" x2="845" y2="287" stroke="#e0e0e0"/><text x="47" y="287" text-anchor="end" dominant-baseline="middle" font-size="11" fill="#888" font-family="sans-serif">$19,389</text><line x1="55" y1="210" x2="845" y2="210" stroke="#e0e0e0"/><text x="47" y="210" text-anchor="end" dominant-baseline="middle" font-size="11" fill="#888" font-family="sans-serif">$19,656</text><line x1="55" y1="133" x2="845" y2="133" stroke="#e0e0e0"/><text x="47" y="133" text-anchor="end" dominant-baseline="middle" font-size="11" fill="#888" font-family="sans-serif">$19,923</text><line x1="55" y1="55" x2="845" y2="55" stroke="#e0e0e0"/><text x="47" y="55" text-anchor="end" dominant-baseline="middle" font-size="11" fill="#888" font-family="sans-serif">$20,191</text><polyline points="55.0,106.3 68.6,79.3 82.2,79.1 95.9,80.8 109.5,69.1 123.1,92.7 136.7,156.9 150.3,151.8 164.0,170.7 177.6,121.6 191.2,172.5 204.8,239.1 218.4,246.1 232.1,250.3 245.7,280.7 259.3,317.1 272.9,268.4 286.6,246.1 300.2,244.2 313.8,188.4 327.4,267.5 341.0,350.9 354.7,309.5 368.3,209.8 381.9,212.2 395.5,176.7 409.1,115.4 422.8,135.4 436.4,156.9 450.0,149.9 463.6,193.2 477.2,244.4 490.9,210.2 504.5,197.8 518.1,237.2 531.7,203.7 545.3,170.7 559.0,175.0 572.6,179.0 586.2,218.9 599.8,188.2 613.4,186.9 627.1,222.6 640.7,221.4 654.3,236.2 667.9,287.5 681.6,225.2 695.2,232.0 708.8,192.2 722.4,170.4 736.0,92.7 749.7,117.2 763.3,140.9 776.9,197.9 790.5,239.3 804.1,215.4 817.8,203.7 831.4,213.8 845.0,209.5" fill="none" stroke="#999" stroke-width="1.5" stroke-dasharray="4 3"/><polyline points="55.0,106.3 68.6,79.3 82.2,79.1 95.9,80.8 109.5,69.1 123.1,92.7 136.7,156.9 150.3,151.8 164.0,170.7 177.6,121.6 191.2,172.5 204.8,239.1 218.4,246.1 232.1,250.3 245.7,280.7 259.3,317.1 272.9,268.4 286.6,246.1 300.2,244.2 313.8,188.4 327.4,267.5 341.0,350.9 354.7,309.5 368.3,209.8 381.9,212.2 395.5,176.7 409.1,115.4 422.8,135.4 436.4,156.9 450.0,149.9 463.6,193.2 477.2,244.4 490.9,210.2 504.5,197.8 518.1,237.2 531.7,203.7 545.3,170.7 559.0,175.0 572.6,179.0 586.2,218.9 599.8,188.2 613.4,186.9 627.1,222.6 640.7,221.4 654.3,236.2 667.9,287.5 681.6,225.2 695.2,232.0 708.8,192.2 722.4,170.4 736.0,92.7 749.7,117.2 763.3,140.9 776.9,197.9 790.5,239.3 804.1,215.4 817.8,203.7 831.4,213.8 845.0,209.5" fill="none" stroke="#1668c8" stroke-width="2.2"/><text x="55" y="22" font-size="13" font-family="sans-serif" fill="#1668c8">— Portfolio</text><text x="165" y="22" font-size="13" font-family="sans-serif" fill="#999">- - SPY buy &amp; hold</text><text x="55" y="402" font-size="11" font-family="sans-serif" fill="#888">2026-07-08</text><text x="845" y="402" text-anchor="end" font-size="11" font-family="sans-serif" fill="#888">2026-09-29</text></svg>