<svg xmlns="http://www.w3.org/2000/svg" width="900" height="420" style="background:#fff"><line x1="55" y1="365" x2="845" y2="365" stroke="#e0e0e0"/><text x="47" y="365" text-anchor="end" dominant-baseline="middle" font-size="11" fill="#888" font-family="sans-serif">$19,527</text><line x1="55" y1="288" x2="845" y2="288" stroke="#e0e0e0"/><text x="47" y="288" text-anchor="end" dominant-baseline="middle" font-size="11" fill="#888" font-family="sans-serif">$19,688</text><line x1="55" y1="210" x2="845" y2="210" stroke="#e0e0e0"/><text x="47" y="210" text-anchor="end" dominant-baseline="middle" font-size="11" fill="#888" font-family="sans-serif">$19,849</text><line x1="55" y1="132" x2="845" y2="132" stroke="#e0e0e0"/><text x="47" y="132" text-anchor="end" dominant-baseline="middle" font-size="11" fill="#888" font-family="sans-serif">$20,010</text><line x1="55" y1="55" x2="845" y2="55" stroke="#e0e0e0"/><text x="47" y="55" text-anchor="end" dominant-baseline="middle" font-size="11" fill="#888" font-family="sans-serif">$20,171</text><polyline points="55.0,130.9 126.8,86.0 198.6,85.8 270.5,88.6 342.3,69.1 414.1,108.2 485.9,214.7 557.7,206.2 629.5,237.6 701.4,156.1 773.2,240.6 845.0,350.9" fill="none" stroke="#999" stroke-width="1.5" stroke-dasharray="4 3"/><polyline points="55.0,130.9 126.8,86.0 198.6,85.8 270.5,88.6 342.3,69.1 414.1,108.2 485.9,214.7 557.7,206.2 629.5,237.6 701.4,156.1 773.2,240.6 845.0,350.9" fill="none" stroke="#1668c8" stroke-width="2.2"/><text x="55" y="22" font-size="13" font-family="sans-serif" fill="#1668c8">— Portfolio</text><text x="165" y="22" font-size="13" font-family="sans-serif" fill="#999">- - SPY buy &amp; hold</text><text x="55" y="402" font-size="11" font-family="sans-serif" fill="#888">2026-07-08</text><text x="845" y="402" text-anchor="end" font-size="11" font-family="sans-serif" fill="#888">2026-07-23</text></svg>