<svg xmlns="http://www.w3.org/2000/svg" width="900" height="420" style="background:#fff"><line x1="55" y1="365" x2="845" y2="365" stroke="#e0e0e0"/><text x="47" y="365" text-anchor="end" dominant-baseline="middle" font-size="11" fill="#888" font-family="sans-serif">$19,121</text><line x1="55" y1="287" x2="845" y2="287" stroke="#e0e0e0"/><text x="47" y="287" text-anchor="end" dominant-baseline="middle" font-size="11" fill="#888" font-family="sans-serif">$19,389</text><line x1="55" y1="210" x2="845" y2="210" stroke="#e0e0e0"/><text x="47" y="210" text-anchor="end" dominant-baseline="middle" font-size="11" fill="#888" font-family="sans-serif">$19,656</text><line x1="55" y1="133" x2="845" y2="133" stroke="#e0e0e0"/><text x="47" y="133" text-anchor="end" dominant-baseline="middle" font-size="11" fill="#888" font-family="sans-serif">$19,923</text><line x1="55" y1="55" x2="845" y2="55" stroke="#e0e0e0"/><text x="47" y="55" text-anchor="end" dominant-baseline="middle" font-size="11" fill="#888" font-family="sans-serif">$20,191</text><polyline points="55.0,106.3 82.2,79.3 109.5,79.1 136.7,80.8 164.0,69.1 191.2,92.7 218.4,156.9 245.7,151.8 272.9,170.7 300.2,121.6 327.4,172.5 354.7,239.1 381.9,246.1 409.1,250.3 436.4,280.7 463.6,317.1 490.9,268.4 518.1,246.1 545.3,244.2 572.6,188.4 599.8,267.5 627.1,350.9 654.3,309.5 681.6,209.8 708.8,212.2 736.0,176.7 763.3,115.4 790.5,135.4 817.8,156.9 845.0,149.9" fill="none" stroke="#999" stroke-width="1.5" stroke-dasharray="4 3"/><polyline points="55.0,106.3 82.2,79.3 109.5,79.1 136.7,80.8 164.0,69.1 191.2,92.7 218.4,156.9 245.7,151.8 272.9,170.7 300.2,121.6 327.4,172.5 354.7,239.1 381.9,246.1 409.1,250.3 436.4,280.7 463.6,317.1 490.9,268.4 518.1,246.1 545.3,244.2 572.6,188.4 599.8,267.5 627.1,350.9 654.3,309.5 681.6,209.8 708.8,212.2 736.0,176.7 763.3,115.4 790.5,135.4 817.8,156.9 845.0,149.9" fill="none" stroke="#1668c8" stroke-width="2.2"/><text x="55" y="22" font-size="13" font-family="sans-serif" fill="#1668c8">— Portfolio</text><text x="165" y="22" font-size="13" font-family="sans-serif" fill="#999">- - SPY buy &amp; hold</text><text x="55" y="402" font-size="11" font-family="sans-serif" fill="#888">2026-07-08</text><text x="845" y="402" text-anchor="end" font-size="11" font-family="sans-serif" fill="#888">2026-08-18</text></svg>