<svg xmlns="http://www.w3.org/2000/svg" width="900" height="420" style="background:#fff"><line x1="55" y1="365" x2="845" y2="365" stroke="#e0e0e0"/><text x="47" y="365" text-anchor="end" dominant-baseline="middle" font-size="11" fill="#888" font-family="sans-serif">$19,121</text><line x1="55" y1="287" x2="845" y2="287" stroke="#e0e0e0"/><text x="47" y="287" text-anchor="end" dominant-baseline="middle" font-size="11" fill="#888" font-family="sans-serif">$19,389</text><line x1="55" y1="210" x2="845" y2="210" stroke="#e0e0e0"/><text x="47" y="210" text-anchor="end" dominant-baseline="middle" font-size="11" fill="#888" font-family="sans-serif">$19,656</text><line x1="55" y1="133" x2="845" y2="133" stroke="#e0e0e0"/><text x="47" y="133" text-anchor="end" dominant-baseline="middle" font-size="11" fill="#888" font-family="sans-serif">$19,923</text><line x1="55" y1="55" x2="845" y2="55" stroke="#e0e0e0"/><text x="47" y="55" text-anchor="end" dominant-baseline="middle" font-size="11" fill="#888" font-family="sans-serif">$20,191</text><polyline points="55.0,106.3 78.9,79.3 102.9,79.1 126.8,80.8 150.8,69.1 174.7,92.7 198.6,156.9 222.6,151.8 246.5,170.7 270.5,121.6 294.4,172.5 318.3,239.1 342.3,246.1 366.2,250.3 390.2,280.7 414.1,317.1 438.0,268.4 462.0,246.1 485.9,244.2 509.8,188.4 533.8,267.5 557.7,350.9 581.7,309.5 605.6,209.8 629.5,212.2 653.5,176.7 677.4,115.4 701.4,135.4 725.3,156.9 749.2,149.9 773.2,193.2 797.1,244.4 821.1,210.2 845.0,197.8" fill="none" stroke="#999" stroke-width="1.5" stroke-dasharray="4 3"/><polyline points="55.0,106.3 78.9,79.3 102.9,79.1 126.8,80.8 150.8,69.1 174.7,92.7 198.6,156.9 222.6,151.8 246.5,170.7 270.5,121.6 294.4,172.5 318.3,239.1 342.3,246.1 366.2,250.3 390.2,280.7 414.1,317.1 438.0,268.4 462.0,246.1 485.9,244.2 509.8,188.4 533.8,267.5 557.7,350.9 581.7,309.5 605.6,209.8 629.5,212.2 653.5,176.7 677.4,115.4 701.4,135.4 725.3,156.9 749.2,149.9 773.2,193.2 797.1,244.4 821.1,210.2 845.0,197.8" fill="none" stroke="#1668c8" stroke-width="2.2"/><text x="55" y="22" font-size="13" font-family="sans-serif" fill="#1668c8">— Portfolio</text><text x="165" y="22" font-size="13" font-family="sans-serif" fill="#999">- - SPY buy &amp; hold</text><text x="55" y="402" font-size="11" font-family="sans-serif" fill="#888">2026-07-08</text><text x="845" y="402" text-anchor="end" font-size="11" font-family="sans-serif" fill="#888">2026-08-24</text></svg>